<?xml version="1.0" encoding="UTF-8" standalone="no"?>
<!-- Generator: Adobe Illustrator 16.0.0, SVG Export Plug-In . SVG Version: 6.00 Build 0)  -->

<svg
   xmlns:dc="http://purl.org/dc/elements/1.1/"
   xmlns:cc="http://creativecommons.org/ns#"
   xmlns:rdf="http://www.w3.org/1999/02/22-rdf-syntax-ns#"
   xmlns:svg="http://www.w3.org/2000/svg"
   xmlns="http://www.w3.org/2000/svg"
   xmlns:sodipodi="http://sodipodi.sourceforge.net/DTD/sodipodi-0.dtd"
   xmlns:inkscape="http://www.inkscape.org/namespaces/inkscape"
   version="1.1"
   id="Layer_1"
   x="0px"
   y="0px"
   width="203.99945"
   height="68.903999"
   viewBox="0 0 203.99945 68.904"
   enable-background="new 0 0 382.099 139.506"
   xml:space="preserve"
   inkscape:version="0.91 r13725"
   sodipodi:docname="logo.svg"><metadata
     id="metadata45"><rdf:RDF><cc:Work
         rdf:about=""><dc:format>image/svg+xml</dc:format><dc:type
           rdf:resource="http://purl.org/dc/dcmitype/StillImage" /><dc:title></dc:title></cc:Work></rdf:RDF></metadata><defs
     id="defs43" /><sodipodi:namedview
     pagecolor="#ffffff"
     bordercolor="#666666"
     borderopacity="1"
     objecttolerance="10"
     gridtolerance="10"
     guidetolerance="10"
     inkscape:pageopacity="0"
     inkscape:pageshadow="2"
     inkscape:window-width="1920"
     inkscape:window-height="1137"
     id="namedview41"
     showgrid="false"
     fit-margin-top="0"
     fit-margin-left="0"
     fit-margin-right="0"
     fit-margin-bottom="0"
     inkscape:zoom="1.6644901"
     inkscape:cx="1.932445"
     inkscape:cy="35.704743"
     inkscape:window-x="-8"
     inkscape:window-y="-8"
     inkscape:window-maximized="1"
     inkscape:current-layer="Layer_1" /><g
     id="g3"
     transform="matrix(0.55102371,0,0,0.55102371,-3.2725298,-3.9837637)"><path
       d="m 118.213,131.476 0,-30.6 16.93,0 0,2.695 -13.474,0 0,10.738 12.481,0 0,2.693 -12.481,0 0,11.771 13.901,0 0,2.701 -17.357,0 z m 8.225,-33.588 -3.071,0 4.545,-5.182 3.496,0 -4.97,5.182 z"
       id="path5"
       inkscape:connector-curvature="0"
       style="fill:#34d9c3" /><path
       d="m 155.614,131.476 -3.025,0 -11.588,-30.6 3.832,0 9.359,25.916 8.893,-25.916 3.69,0 -11.161,30.6 z"
       id="path7"
       inkscape:connector-curvature="0"
       style="fill:#34d9c3" /><path
       d="m 189.229,131.476 -3.264,-9.133 -12.577,0 -3.451,9.133 -3.645,0 12.438,-30.6 2.837,0 11.539,30.6 -3.877,0 z m -9.27,-26.25 -5.575,14.518 10.686,0 -5.111,-14.518 z"
       id="path9"
       inkscape:connector-curvature="0"
       style="fill:#34d9c3" /><path
       d="m 199.906,131.476 0,-30.6 3.456,0 0,27.758 13.994,0 0,2.842 -17.45,0 z"
       id="path11"
       inkscape:connector-curvature="0"
       style="fill:#34d9c3" /><path
       d="m 234.752,132.277 c -8.321,0 -11.727,-3.926 -11.727,-12.105 l 0,-19.295 3.456,0 0,18.828 c 0,7.795 2.647,9.879 8.271,9.879 5.249,0 7.613,-2.602 7.613,-9.879 l 0,-18.828 3.456,0 0,19.391 c 0,8.134 -3.551,12.009 -11.069,12.009 z"
       id="path13"
       inkscape:connector-curvature="0"
       style="fill:#34d9c3" /><path
       d="m 275.604,131.476 -3.264,-9.133 -12.58,0 -3.456,9.133 -3.638,0 12.438,-30.6 2.835,0 11.539,30.6 -3.874,0 z m -9.271,-26.25 -5.577,14.518 10.686,0 -5.109,-14.518 z"
       id="path15"
       inkscape:connector-curvature="0"
       style="fill:#34d9c3" /><path
       d="m 292.903,103.621 0,27.855 -3.456,0 0,-27.855 -9.028,0 0,-2.744 21.563,0 0,2.744 -9.079,0 z"
       id="path17"
       inkscape:connector-curvature="0"
       style="fill:#34d9c3" /><path
       d="m 307.934,131.476 0,-30.6 3.451,0 0,30.6 -3.451,0 z"
       id="path19"
       inkscape:connector-curvature="0"
       style="fill:#34d9c3" /><path
       d="m 332.285,132.277 c -10.165,0 -13.191,-6.855 -13.191,-15.986 0,-9.029 3.451,-15.934 13.237,-15.934 9.928,0 12.959,6.762 12.959,15.934 0,9.08 -3.314,15.986 -13.005,15.986 z m 0,-29.229 c -7.285,0 -9.599,5.154 -9.599,13.242 0,8.09 2.313,13.293 9.599,13.293 7.377,0 9.407,-5.439 9.407,-13.293 0,-8.132 -2.171,-13.242 -9.407,-13.242 z"
       id="path21"
       inkscape:connector-curvature="0"
       style="fill:#34d9c3" /><path
       d="m 371.147,131.476 -14.424,-26.535 0,26.535 -3.168,0 0,-30.6 4.916,0 14.333,26.533 0,-26.533 3.354,0 0,30.6 -5.011,0 z"
       id="path23"
       inkscape:connector-curvature="0"
       style="fill:#34d9c3" /><path
       d="m 127.868,30.96 0,55.129 -9.592,0 0,-55.129 -17.921,0 0,-7.559 45.433,0 0,7.559 -17.92,0 z"
       id="path25"
       inkscape:connector-curvature="0"
       style="fill:#002d5c" /><path
       d="m 194.516,86.089 0,-28.584 -26.927,0 0,28.584 -9.69,0 0,-62.687 9.69,0 0,26.55 26.927,0 0,-26.55 9.69,0 0,62.688 -9.69,0 z"
       id="path27"
       inkscape:connector-curvature="0"
       style="fill:#002d5c" /><path
       d="m 248.575,87.83 c -17.537,0 -25.287,-8.137 -25.287,-24.901 l 0,-39.527 9.69,0 0,38.559 c 0,15.019 5.906,18.41 15.597,18.41 9.199,0 14.338,-4.744 14.338,-18.41 l 0,-38.559 9.686,0 0,39.721 c 0,16.671 -8.236,24.707 -24.024,24.707 z"
       id="path29"
       inkscape:connector-curvature="0"
       style="fill:#002d5c" /><path
       d="m 291.686,86.089 0,-62.687 9.686,0 0,54.938 27.317,0 0,7.75 -37.003,0 z"
       id="path31"
       inkscape:connector-curvature="0"
       style="fill:#002d5c" /><path
       d="m 339.151,86.089 0,-62.687 35.942,0 0,7.462 -26.257,0 0,19.087 24.221,0 0,7.455 -24.221,0 0,21.226 27.125,0 0,7.457 -36.81,0 z m 16.562,-67.507 -8.038,0 9.296,-11.155 9.109,0 -10.367,11.155 z"
       id="path33"
       inkscape:connector-curvature="0"
       style="fill:#002d5c" /><path
       d="m 60.703,8.104 c -0.18,-0.677 -1.313,-0.677 -1.49,0 L 48.357,48.583 c -0.085,0.323 0.046,0.667 0.329,0.849 0.28,0.177 0.651,0.159 0.909,-0.05 l 10.362,-8.597 10.362,8.597 c 0.142,0.114 0.315,0.172 0.492,0.172 0.146,0 0.291,-0.038 0.414,-0.122 0.286,-0.182 0.42,-0.525 0.334,-0.849 L 60.703,8.104 Z"
       id="path35"
       inkscape:connector-curvature="0"
       style="fill:#002d5c" /><path
       d="m 59.955,51.74 c -3.746,0 -6.79,3.044 -6.79,6.79 0,3.744 3.044,6.788 6.79,6.788 3.749,0 6.798,-3.044 6.798,-6.788 0,-3.746 -3.049,-6.79 -6.798,-6.79 z"
       id="path37"
       inkscape:connector-curvature="0"
       style="fill:#002d5c" /><path
       d="M 107.699,94.324 92.156,78.791 c -0.114,-0.119 -0.301,-0.119 -0.415,0 l -5.009,5.004 c -0.053,0.057 -0.084,0.129 -0.084,0.211 0,0.072 0.031,0.148 0.084,0.209 l 4.986,4.979 c -8.634,7.877 -19.777,12.209 -31.415,12.209 -12.472,0 -24.197,-4.859 -33.017,-13.676 -8.821,-8.822 -13.679,-20.559 -13.679,-33.025 0,-11.635 4.335,-22.775 12.209,-31.412 l 4.984,4.984 c 0.11,0.114 0.306,0.114 0.419,0 l 5.002,-5.004 c 0.113,-0.116 0.113,-0.3 0,-0.417 L 20.682,7.313 c -0.111,-0.111 -0.306,-0.111 -0.417,0 l -5.004,5.004 c -0.114,0.116 -0.114,0.303 0,0.415 l 5.133,5.135 C 11.069,27.957 5.939,41.024 5.939,54.701 c 0,14.52 5.653,28.17 15.927,38.441 9.261,9.268 21.573,14.848 34.688,15.74 l 0,14.705 -8.374,0 c -0.161,0 -0.295,0.129 -0.295,0.295 l 0,7.076 c 0,0.16 0.134,0.297 0.295,0.297 l 24.421,0 c 0.164,0 0.295,-0.137 0.295,-0.297 l 0,-7.076 c 0,-0.166 -0.131,-0.295 -0.295,-0.295 l -8.375,0 0,-14.713 c 12.401,-0.879 23.769,-5.805 32.916,-14.258 l 5.133,5.133 c 0.111,0.111 0.309,0.111 0.417,0 l 5.007,-5.008 c 0.113,-0.115 0.113,-0.3 0,-0.417 z"
       id="path39"
       inkscape:connector-curvature="0"
       style="fill:#34d9c3" /></g></svg>